<svg width="1595" height="3999" viewBox="0 0 1595 3999" fill="none" xmlns="http://www.w3.org/2000/svg">
<path d="M1250.5 2557.5L1264.85 2568.36L1264.85 2568.36L1250.5 2557.5ZM0.5 3999L196.518 3929.88L38.6532 3794.69L0.5 3999ZM1206.82 15.8877C1329.71 267.971 1488.84 701.221 1541.05 1171.67C1593.27 1642.28 1538.25 2147.53 1236.15 2546.64L1264.85 2568.36C1574.75 2158.97 1629.57 1642.97 1576.83 1167.7C1524.07 692.279 1363.45 255.029 1239.18 0.112252L1206.82 15.8877ZM1236.15 2546.64C758.169 3178.08 318.166 3615.19 92.5586 3863.85L119.22 3888.04C343.555 3640.78 785.587 3201.51 1264.85 2568.36L1236.15 2546.64Z" fill="#7A9BAF"/>
</svg>
